<svg xmlns="http://www.w3.org/2000/svg" xmlns:xlink="http://www.w3.org/1999/xlink" viewBox="0,0,256,256" width="50px" height="50px" fill-rule="nonzero"><g fill="#808080" fill-rule="nonzero" stroke="none" stroke-width="1" stroke-linecap="butt" stroke-linejoin="miter" stroke-miterlimit="10" stroke-dasharray="" stroke-dashoffset="0" font-family="none" font-weight="none" font-size="none" text-anchor="none" style="mix-blend-mode: normal"><g transform="scale(5.12,5.12)"><path d="M25,0c-12.69047,0 -23,10.30953 -23,23c0,6.87695 3.0308,13.05253 7.82031,17.26758l-2.41602,4.22852c-0.08602,0.15117 -0.13112,0.32216 -0.13086,0.49609v4.0293c0.00011,0.35883 0.19246,0.6901 0.50403,0.86808c0.31158,0.17799 0.69463,0.17541 1.00378,-0.00676l3.47266,-2.04492c0.14948,-0.08847 0.27333,-0.21435 0.35938,-0.36523l2.20508,-3.85742c3.07089,1.51977 6.52668,2.38477 10.18164,2.38477c3.65496,0 7.11076,-0.86499 10.18164,-2.38477l2.20508,3.85742c0.08604,0.15089 0.2099,0.27676 0.35938,0.36523l3.47266,2.04492c0.30915,0.18216 0.6922,0.18474 1.00378,0.00676c0.31158,-0.17799 0.50392,-0.50925 0.50403,-0.86808v-4.0293c0.00026,-0.17393 -0.04484,-0.34492 -0.13086,-0.49609l-2.41602,-4.22852c4.78952,-4.21504 7.82031,-10.39063 7.82031,-17.26758c0,-12.69047 -10.30953,-23 -23,-23zM25,2c11.60953,0 21,9.39047 21,21c0,6.14384 -2.63326,11.65778 -6.83203,15.49805l-2.08594,-3.65039c2.76844,-2.82964 4.60383,-6.58477 4.86523,-10.78516c0.01722,-0.27552 -0.0802,-0.54591 -0.26921,-0.74712c-0.18901,-0.20121 -0.45278,-0.31535 -0.72884,-0.31538h-4c-0.52026,0.00033 -0.95337,0.39947 -0.99609,0.91797c-0.16636,1.99927 -0.98262,3.76253 -2.07812,5.31641l-2.16406,-3.78711l0.99414,-0.98828c0.18873,-0.18767 0.29487,-0.44283 0.29492,-0.70898v-8.75c0,-1.64497 -1.35503,-3 -3,-3h-1v-3c-0.00006,-0.55226 -0.44774,-0.99994 -1,-1h-6c-0.55226,0.00006 -0.99994,0.44774 -1,1v3h-1c-1.64497,0 -3,1.35503 -3,3v8.75c0.00005,0.26424 0.10467,0.51773 0.29102,0.70508l0.99414,1l-7.45312,13.04297c-4.19877,-3.84027 -6.83203,-9.35421 -6.83203,-15.49805c0,-11.60953 9.39047,-21 21,-21zM23,10h4v3c0.00006,0.55226 0.44774,0.99994 1,1h2c0.56503,0 1,0.43497 1,1v8.33398l-1.2168,1.21094c-0.00861,0.00831 -0.01708,0.01678 -0.02539,0.02539l-2.9375,2.91992l-1.27539,1.26758c-0.32884,0.32745 -0.8301,0.32804 -1.1582,-0.00195l-1.21484,-1.2207l-0.00586,-0.00781l-2.92578,-2.94336c-0.00387,-0.00394 -0.00778,-0.00784 -0.01172,-0.01172l-1.22852,-1.23437v-8.33789c0,-0.56503 0.43497,-1 1,-1h2c0.55226,-0.00006 0.99994,-0.44774 1,-1zM25,16c-1.25,0 -2.31477,0.50476 -2.99805,1.27344c-0.68327,0.76868 -1.00195,1.75434 -1.00195,2.72656c0,0.97222 0.31868,1.95788 1.00195,2.72656c0.68327,0.76868 1.74805,1.27344 2.99805,1.27344c1.25,0 2.31477,-0.50476 2.99805,-1.27344c0.68327,-0.76868 1.00195,-1.75434 1.00195,-2.72656c0,-0.97222 -0.31868,-1.95788 -1.00195,-2.72656c-0.68327,-0.76868 -1.74805,-1.27344 -2.99805,-1.27344zM25,18c0.75,0 1.18523,0.24524 1.50195,0.60156c0.31673,0.35632 0.49805,0.87066 0.49805,1.39844c0,0.52778 -0.18132,1.04212 -0.49805,1.39844c-0.31673,0.35632 -0.75195,0.60156 -1.50195,0.60156c-0.75,0 -1.18523,-0.24524 -1.50195,-0.60156c-0.31673,-0.35632 -0.49805,-0.87066 -0.49805,-1.39844c0,-0.52778 0.18132,-1.04212 0.49805,-1.39844c0.31673,-0.35632 0.75195,-0.60156 1.50195,-0.60156zM37.71094,25h2.06836c-0.47734,3.52378 -2.11604,6.68018 -4.60156,8.99023c-0.01617,0.01574 -0.03181,0.03203 -0.04687,0.04883c-0.88068,0.81147 -1.85921,1.51799 -2.91406,2.10156c-0.03537,0.01365 -0.06993,0.0293 -0.10352,0.04688c-2.11928,1.15205 -4.5355,1.8125 -7.11328,1.8125c-2.57779,0 -4.99401,-0.66045 -7.11328,-1.8125c-0.47803,-0.25961 -1.07589,-0.08953 -1.3457,0.38281l-5.53125,9.67969l-1.73633,1.02148v-2.01367l10.47461,-18.33203l1.46289,1.4707l-2.68945,4.70703c-0.13414,0.23481 -0.16748,0.51393 -0.09241,0.77372c0.07507,0.25979 0.25214,0.47812 0.49085,0.60519c1.8142,0.96613 3.886,1.51758 6.08008,1.51758c2.19506,0 4.26504,-0.55399 6.07813,-1.51953l0.00391,0.00586c1.30139,-0.69241 2.47191,-1.60032 3.46289,-2.67578l-0.00391,-0.00391c1.69851,-1.84117 2.75807,-4.22075 3.16992,-6.80664zM30.24219,26.9082l2.31836,4.05859c-0.48907,0.46557 -1.01629,0.88997 -1.58398,1.25977l-2.20312,-3.85742zM27.30469,29.82813l1.86328,3.26367c-1.29496,0.54092 -2.67751,0.9082 -4.16797,0.9082c-1.49125,0 -2.87496,-0.36625 -4.16992,-0.90625l1.84375,-3.22461l0.29492,0.29688c1.0899,1.09605 2.89117,1.10028 3.98633,0.00977zM35.59375,36.27344l5.13281,8.98437v2.01367l-1.73633,-1.02148l-5.03516,-8.8125c0.57046,-0.35575 1.1161,-0.74523 1.63867,-1.16406zM17.85156,38.30859c2.183,1.02861 4.5782,1.69141 7.14844,1.69141c2.57024,0 4.96544,-0.6628 7.14844,-1.69141l2.04102,3.57031c-2.77618,1.35507 -5.88807,2.12109 -9.18945,2.12109c-3.30138,0 -6.41327,-0.76602 -9.18945,-2.12109z"></path></g></g></svg>