<svg xmlns="http://www.w3.org/2000/svg" xmlns:xlink="http://www.w3.org/1999/xlink" viewBox="0,0,256,256" width="48px" height="48px" fill-rule="nonzero"><defs><linearGradient x1="16.008" y1="6.199" x2="39.945" y2="45.892" gradientUnits="userSpaceOnUse" id="color-1"><stop offset="0" stop-color="#636363"></stop><stop offset="1" stop-color="#808080"></stop></linearGradient></defs><g fill="none" fill-rule="nonzero" stroke="none" stroke-width="none" stroke-linecap="butt" stroke-linejoin="miter" stroke-miterlimit="10" stroke-dasharray="" stroke-dashoffset="0" font-family="none" font-weight="none" font-size="none" text-anchor="none" style="mix-blend-mode: normal"><g transform="scale(5.33333,5.33333)"><path d="M33.78,8.995l-13.908,3.487l-10.112,10.02h16.008z" fill="#ffffff" stroke="none" stroke-width="1"></path><path d="M9.793,25.503l10.08,9.943l13.947,3.487l-8.016,-13.43z" fill="#ffffff" stroke="none" stroke-width="1"></path><path d="M36.433,10.528l-7.986,13.473l7.986,13.433l3.861,-13.433z" fill="#ffffff" stroke="none" stroke-width="1"></path><path d="M20.126,12.934l12.612,-3.163l-7.255,12.231h-14.508z" fill="none" stroke="#808080" stroke-width="1" opacity="0.07"></path><path d="M20.126,12.934l12.612,-3.163l-7.255,12.231h-14.508z" fill="none" stroke="#808080" stroke-width="2" opacity="0.05"></path><path d="M20.126,12.934l12.612,-3.163l-7.255,12.231h-14.508z" fill="none" stroke="#808080" stroke-width="1" opacity="0.07"></path><path d="M36.272,36.185l-7.243,-12.184l7.243,-12.221l3.502,12.221z" fill="none" stroke="#808080" stroke-width="1" opacity="0.07"></path><path d="M20.126,34.994l-9.114,-8.991h14.508l7.255,12.153z" fill="none" stroke="#808080" stroke-width="1" opacity="0.07"></path><path d="M36.272,36.185l-7.243,-12.184l7.243,-12.221l3.502,12.221z" fill="none" stroke="#808080" stroke-width="2" opacity="0.05"></path><path d="M36.272,36.185l-7.243,-12.184l7.243,-12.221l3.502,12.221z" fill="none" stroke="#808080" stroke-width="1" opacity="0.07"></path><g fill="none" stroke="#808080"><path d="M20.126,34.994l-9.114,-8.991h14.508l7.255,12.153z" stroke-width="2" opacity="0.05"></path><path d="M20.126,34.994l-9.114,-8.991h14.508l7.255,12.153z" stroke-width="1" opacity="0.07"></path></g><path d="M36.272,36.185l-7.243,-12.184l7.243,-12.221l3.502,12.221zM20.126,34.994l-9.115,-8.991h14.509l7.254,12.153zM20.126,12.934l12.611,-3.162l-7.254,12.231h-14.508zM37.687,4.033l-15.108,3.922c-0.26,0.068 -0.483,0.236 -0.619,0.469l-2.243,3.841l-4.533,-0.034c-0.266,-0.002 -0.521,0.101 -0.712,0.286l-11.082,10.758c-0.409,0.398 -0.409,1.055 0.001,1.452l11.081,10.724c0.19,0.184 0.446,0.286 0.711,0.284l4.534,-0.034l2.244,3.842c0.135,0.232 0.357,0.4 0.617,0.468l15.108,3.956c0.536,0.14 1.085,-0.177 1.231,-0.711l4.047,-14.789c0.074,-0.269 0.033,-0.557 -0.113,-0.795l-2.249,-3.667l2.249,-3.674c0.146,-0.238 0.187,-0.526 0.113,-0.795l-4.048,-14.792c-0.146,-0.533 -0.694,-0.85 -1.229,-0.711z" fill="url(#color-1)" stroke="none" stroke-width="1"></path></g></g></svg>